<?xml-stylesheet type="text/css" href="/static/css/logo.css" ?>
<svg version="1.1" id="Layer_1" xmlns="http://www.w3.org/2000/svg" xmlns:xlink="http://www.w3.org/1999/xlink" x="0px" y="0px"
	 viewBox="0 0 234 261" style="enable-background:new 0 0 234 261;" xml:space="preserve">
<style type="text/css">
	.st0{fill:#A50000;}
	.st1{fill:none;stroke:#FFFFFF;stroke-miterlimit:10;}
	.st2{fill:none;stroke:#FFFFFF;stroke-miterlimit:10;stroke-dasharray:5,4;}
	.st3{fill:#FFFFFF;}
	.st4{fill:#E98924;}
	.st5{fill:#E88924;}
	.st6{fill:#FEE000;}
	.st7{fill:#8CC63F;}
	.st8{fill:#637F32;}
	.st9{fill:#404F21;}
	.st10{fill:#00BDFF;}
	.st11{fill:#214391;}
	.st12{fill:#A42AA0;}
	.st13{fill:#33129E;}
</style>
<g class="Square">
	<rect id="XMLID_83_" x="46" y="55" class="st0" width="142" height="142"/>
	<path id="XMLID_80_" d="M187,56v140H47V56H187 M189,54H45v144h144V54L189,54z"/>
</g>
<g class="Dotted">
	<g id="XMLID_1_">
		<g id="XMLID_70_">
			<polyline id="XMLID_79_" class="st1" points="179.5,187 179.5,189.5 177,189.5 			"/>
			<line id="XMLID_78_" class="st2" x1="173" y1="189.5" x2="58" y2="189.5"/>
			<polyline id="XMLID_77_" class="st1" points="56,189.5 53.5,189.5 53.5,187 			"/>
			<line id="XMLID_75_" class="st2" x1="53.5" y1="183" x2="53.5" y2="68"/>
			<polyline id="XMLID_74_" class="st1" points="53.5,66 53.5,63.5 56,63.5 			"/>
			<line id="XMLID_73_" class="st2" x1="60" y1="63.5" x2="175" y2="63.5"/>
			<polyline id="XMLID_72_" class="st1" points="177,63.5 179.5,63.5 179.5,66 			"/>
			<line id="XMLID_71_" class="st2" x1="179.5" y1="70" x2="179.5" y2="185"/>
		</g>
	</g>
</g>
<path class="G_2_ st3" d="M79.8,126.8c0,0-2.8-28.9,32.3-36.7c0,0,13-3.7,26.2,7.6c0,0,3.2-1.7,4.8-7.7h2v22h-3.4
	c0,0-1.3-19.1-23.2-20.1c0,0-24.2-1-23.8,34.9c0,0-2.2,32.6,22,33.2c0,0,13.5,0.2,19.5-9v-15.6c0,0-2.4-2-10-2.9l0.1-2.5h29v2.7
	c0,0-6-0.2-9,2.6v25.8c0,0-4.2-7.4-7-7.9c0,0-14.4,10.2-22.3,10.2C116.6,163.4,80.7,165.6,79.8,126.8z"/>
<g class="Colors">
	<polygon id="XMLID_69_" class="st4" points="189,82.2 189,113.8 201.2,109.8 205.9,105.9 207.2,103.2 207.4,100.3 206.2,97.7
		199.6,92.3 197.8,90 197.2,87.3 198.2,84.6 202.7,78.5 204.7,74.9 205.7,71.2 204,74.2 200,78.1 195.1,80.6 	"/>
	<polygon id="XMLID_4_" class="st4" points="161.2,54 152,54 152.1,53.2 151.7,50.4 151.8,47.7 152.5,46.2 153.9,45.1 157.5,43.1
		159.9,40.8 160.7,38.4 160.5,35.9 160.4,35.2 160.9,35.9 161.5,39 160.7,41.6 158.2,47 158.3,49.2 	"/>
	<polygon id="XMLID_5_" class="st5" points="175,54 178,47.1 178.3,44.4 177.8,41.7 176.4,38.4 174.1,34.8 171.9,32.9 168.3,30.6
		167,28.6 167.9,25.2 168,23.8 164.1,20.6 158.8,21.7 157.1,21.4 155.4,20.7 153.8,18.7 152.5,15.8 150.5,8 151.7,10.2 153.8,12.7
		156.3,14.5 158.9,15.5 162.1,15.8 168.8,14.9 173.1,15.1 176.2,17.2 177.3,20.2 178.4,27.7 179.8,30 179.9,31 178.9,34.3
		182.5,36.5 187.3,37 188.2,37.5 189.6,38.7 190.9,40.5 192,42.7 192.5,44.7 192.3,47.2 191.1,49.1 189.5,50.1 189.6,51.4
		195.6,52.5 197.6,54 198.8,56.1 199.2,58.7 198.3,63.3 195.3,68 189,72.6 189,54 	"/>
	<polygon id="XMLID_6_" class="st6" points="189,177.8 196.9,184.4 198.1,185.2 189.9,190.3 190.8,192.1 205.6,200.3 196.4,204.9
		210.2,226.5 208.5,225.4 189,207.9 192.8,202.4 189,197.1 	"/>
	<polygon id="XMLID_7_" class="st6" points="129,198 131.8,202.5 130.1,204.9 127.9,206 135.1,215 143,226.8 143,220.3 143.8,217.1
		156.2,231.5 168.1,247.8 168.3,247.6 163,237.1 152.1,218.8 155,219.2 169.7,231.5 168.5,227.9 168.6,222.6 171.2,222.9 199,235.7
		199,235.5 174.6,216.3 165.7,208.3 162.6,214.8 160.4,212.8 148,198 142.2,198 140.7,199.4 138.3,198 	"/>
	<polygon id="XMLID_9_" class="st3" points="139.4,198 140.6,199.1 141,198 	"/>
	<polygon id="XMLID_8_" class="st3" points="149.7,198 156.8,207.4 162.7,213.7 163,212.2 164.2,208.4 165.3,207.6 166.8,208.7
		169.7,211.6 171.5,212 176.2,210.5 179,208.2 179.7,205.8 182,202.4 187.5,201.9 190.5,200.9 187.6,198 	"/>
	<polygon id="XMLID_12_" class="st3" points="75.7,198 76.7,201.1 77.8,201.9 81.4,202.8 82,203.5 82,205.3 81.9,207.5 82.7,208.7
		85.6,210.3 87.2,212.8 87.8,214.8 88,218.2 88,222.6 88.7,225.9 91.2,232.1 91.4,231.7 92.1,228.6 92.3,225.6 91.9,221.4
		92.7,218.2 92.4,215.4 91.7,211.8 91.4,210.9 93.4,209.6 96.1,206.6 98,205.9 103.2,206.5 106.4,206.7 107.5,210.6 108.8,212.2
		110.2,213.1 112.2,213.3 114.3,212.4 115.3,211.5 116,210.6 116.3,210 116.6,209.1 120.8,207.3 123.5,205.4 124.4,205.1
		127.2,204.9 130.2,203.1 130.8,202.2 130.6,201.3 128.8,198 	"/>
	<polygon id="XMLID_13_" class="st3" points="45,133.3 43,132.8 40.1,132.5 38.6,132.4 36.4,132.8 35.3,132.7 34.8,132.2
		34.7,131.9 34.6,131.6 34.6,131.3 34.6,131 34.6,130.2 34.8,129.4 34,128.1 34,127.1 34.5,126.2 35.2,126 36.9,126.2 40.5,124.2
		37.7,117.2 35,116.9 33.1,116.1 32.3,116.3 31.8,116.1 31,114.8 30.8,113.4 30.8,112.5 31.7,111.2 33.4,108.6 33.9,107.4
		33.5,105.8 30.7,103.8 30,102.4 29.7,100.4 29.7,95.5 29.4,94.3 29.1,93.3 29,92.9 28.9,92.5 28.8,92.3 28.9,92 29,91.7 29,91.5
		29,91.1 29,90.6 29.3,89.9 30.7,89 32.2,86.4 33.1,84.8 34.1,84 35.7,83.6 37.6,84 40.5,86.2 43,88.2 45,89.8 	"/>
	<polygon id="XMLID_14_" class="st7" points="57.5,198 64.2,201.1 65.5,201.5 67.9,201.7 70.9,201.2 72.5,200.5 75.7,198 75.7,198
		"/>
	<polygon id="XMLID_10_" class="st7" points="45,184.9 34.1,181.7 28.8,179.7 26,178.2 25.1,177.1 25.3,175.2 25.4,173.8
		24.8,170.6 24.9,169.1 25.6,167.6 27.3,166.2 30.7,164.3 31.8,163.5 32.3,163.1 32.7,162.4 33,161.9 33.2,161.6 33.4,162.1
		33.8,162.7 34.6,163.5 35,163.9 36.8,165.3 35.7,165.8 34,166.5 31.3,168.5 30.3,170.2 29.9,173.8 30.4,175.7 31.6,177.4
		32.8,177.9 35.5,178.3 36.8,179.1 38.6,180.8 39.7,181.2 41.9,181.3 45,180.5 	"/>
	<path id="XMLID_20_" class="st7" d="M45,171.9l-0.4-0.4l-1.3-1.4l-1.1-1.1l-4.3-3.6l-2.2-2.1l-1.9-1.9l0.5-3.2l4.9-3.8l1.2-2.7
		l-3-2.8l-3.1-0.1l-3-0.2l-2.8-1.1l-1.1-0.7l-0.9-1l-0.4-1.4l-1.1-5.5l-3.2-1.5l-4.1,0.4l-4.2,1.1l-2.4,0.1c0,0-1.3-0.5-1.3-0.5
		s-0.9-0.6-0.9-0.6l-0.8-0.8l-0.7-1.1L7,135.3l3.1,1.9l2.6,0.3l8.4-1.3l3.2,0.3l2.3,1.4l4.5,5.4l2,0.8l2.6,0.1l4.6-0.3l2.1,0.4
		l1.3,0.7l0.6,0.5l0.3,0.3l0.2,0.3l0.1,0.2v6c0,0-0.4,0.1-0.5,0.4l-2.1,2.5l-1.7,3.2l-0.2,2.3l0.6,2.2l1.5,2.1l1.5,1l0.9,0.2V171.9z
		"/>
	<polygon id="XMLID_21_" class="st8" points="45,177.8 41.2,179.2 39.6,178.8 37.1,177.5 33.9,177.3 32,176.5 30.8,174.3
		30.9,170.9 32.3,168.8 37.2,166.1 36.9,167.9 33.7,171.3 34.3,173.3 36.8,174.3 45,175.1 	"/>
	<path id="XMLID_19_" class="st8" d="M45,166l-1.2-0.7l-2.3-3.8l0.1-2l0.8-2.5l1.8-3.9c0,0,0.5-0.8,0.8-0.8V166z"/>
	<polygon id="XMLID_33_" class="st8" points="45,141.6 43.3,140.7 40,140 33.6,140.2 29.9,139.6 31.8,141.7 34.4,142.6 40.5,143.2
		42.3,143.8 43.4,144.5 44.1,145.2 44.4,145.6 44.5,145.7 44.8,146 45,146.4 	"/>
	<polygon id="XMLID_32_" class="st9" points="45,174.6 35.7,172.8 35.3,170.7 37.8,167.9 38.4,166.4 45,172 	"/>
	<polygon id="XMLID_35_" class="st9" points="45,140.7 43,139.3 38.4,138.3 29.6,137.7 24,135.2 12.8,135.8 7.8,134.5 5.4,131.8
		4.4,129.9 9.1,132 13.7,132.6 27.1,131.2 29.7,132.6 32,134.1 33.8,134.3 37.3,133.4 39.4,133 42.4,133 45,133.3 	"/>
	<polygon id="XMLID_34_" class="st10" points="189,170.8 191.6,167.2 199.1,160.2 202.8,155.6 204.9,151.9 206.2,148.1 206.8,144.1
		206.4,140.5 205.5,137.3 204,134.2 203,133.3 203.1,131.4 204,128.9 203.9,127.4 202.9,126.3 197.1,124.1 195.7,125.1 195,127.5
		195.8,131.6 193.3,134 193.4,136.6 189,140.1 	"/>
	<polygon id="XMLID_36_" class="st11" points="189,145.3 192.6,143.9 190.5,142.9 189.8,140.6 191.1,138.8 193,137.8 192.4,137
		190.9,137 189.8,137.5 189,137.8 	"/>
	<polygon id="XMLID_37_" class="st11" points="189,150.8 190.9,148.7 191.7,150.1 193.9,151.5 194.4,152.3 194.6,153.3 194.3,154.5
		190.9,159.6 195.8,156.2 199.1,152.1 199.6,148.9 201.8,148.9 200.8,152.8 198.3,157.3 195.3,160.7 189,166.3 	"/>
	<polygon id="XMLID_39_" class="st12" points="96.2,54 99.9,52 106.7,48.7 106.3,50.9 105.1,54 	"/>
	<polygon id="XMLID_40_" class="st12" points="45,89.6 35.5,81.8 31.8,77.3 29.9,72.9 29.6,68.9 30.5,64 33.4,58.1 39.3,52.9
		45.4,45.9 50.8,45.1 59.3,48.9 67.1,47.9 69.1,45.5 69.4,43.7 67.6,40.1 65.5,37.5 64.6,34.8 65.4,31 67.9,28.7 75.8,25.4
		74.4,29.3 75.5,34 77,34.6 80.1,35.8 81.4,37.3 81.6,38.7 81.1,41.4 78,45.4 76.4,47.9 76.3,49.5 76.8,50.6 78.1,51.3 80.6,51.7
		83.4,51.3 85.5,50.6 87.1,49 87.5,47.7 87.7,46.2 87.8,42.6 88.2,39.9 89.2,38.5 91.1,37.2 94.8,34.8 95,33.3 95.1,33 95.5,32
		95.7,31.6 95.9,31.4 96.2,31.2 96.6,30.8 97.3,30.6 98,30.5 99.1,30.6 100.7,30.7 101.8,30.6 102.8,30.3 102.2,32.2 103,38.6
		103,40.5 102.7,43.2 97.8,47.2 90.3,50.6 87.7,52.3 86.7,54 45,54 	"/>
	<path id="XMLID_38_" class="st13" d="M59.6,54c0,0-0.6-0.7-1.5-0.9L54,51.7l-2.6-0.1l-1.6,0.5l-3,1.2L46,54H59.6z"/>
	<polygon id="XMLID_42_" class="st13" points="68.5,54 68.5,52.6 68.7,52.1 69.1,51.7 69.8,51.4 72.4,52.1 75.9,54 	"/>
	<path id="XMLID_41_" class="st13" d="M69.5,37.3c0,0-2.1-0.5-1.9-2.4s2.5-1.4,2.5-1.4s1.8,0.6,1.2,2.3S69.5,37.3,69.5,37.3z"/>
	<path id="XMLID_43_" class="st13" d="M73.7,43.8l2.4-2.9c0,0,0.8-3.2-1.9-3.1c-2.8,0.1-2.1,3.5-2.1,3.5L73.7,43.8z"/>
	<path id="XMLID_45_" class="st13" d="M92.8,45.2c0,0,2.6-0.4,2-4.2c0,0-3.3-2.8-3,2.8C91.8,43.8,92,45.1,92.8,45.2z"/>
	<polyline id="XMLID_46_" class="st13" points="45,55 43.9,56.7 43.2,62 37.6,67.3 36.9,71.4 38.5,76.5 45,82.5 45,55 	"/>
</g>
<g class="White_1_">
	<polygon id="XMLID_88_" class="st3" points="189,82.2 189,113.8 201.2,109.8 205.9,105.9 207.2,103.2 207.4,100.3 206.2,97.7
		199.6,92.3 197.8,90 197.2,87.3 198.2,84.6 202.7,78.5 204.7,74.9 205.7,71.2 204,74.2 200,78.1 195.1,80.6 	"/>
	<polygon id="XMLID_87_" class="st3" points="161.2,54 152,54 152.1,53.2 151.7,50.4 151.8,47.7 152.5,46.2 153.9,45.1 157.5,43.1
		159.9,40.8 160.7,38.4 160.5,35.9 160.4,35.2 160.9,35.9 161.5,39 160.7,41.6 158.2,47 158.3,49.2 	"/>
	<polygon id="XMLID_86_" class="st3" points="175,54 178,47.1 178.3,44.4 177.8,41.7 176.4,38.4 174.1,34.8 171.9,32.9 168.3,30.6
		167,28.6 167.9,25.2 168,23.8 164.1,20.6 158.8,21.7 157.1,21.4 155.4,20.7 153.8,18.7 152.5,15.8 150.5,8 151.7,10.2 153.8,12.7
		156.3,14.5 158.9,15.5 162.1,15.8 168.8,14.9 173.1,15.1 176.2,17.2 177.3,20.2 178.4,27.7 179.8,30 179.9,31 178.9,34.3
		182.5,36.5 187.3,37 188.2,37.5 189.6,38.7 190.9,40.5 192,42.7 192.5,44.7 192.3,47.2 191.1,49.1 189.5,50.1 189.6,51.4
		195.6,52.5 197.6,54 198.8,56.1 199.2,58.7 198.3,63.3 195.3,68 189,72.6 189,54 	"/>
	<polygon id="XMLID_84_" class="st3" points="189,177.8 196.9,184.4 198.1,185.2 189.9,190.3 190.8,192.1 205.6,200.3 196.4,204.9
		210.2,226.5 208.5,225.4 189,207.9 192.8,202.4 189,197.1 	"/>
	<polygon id="XMLID_58_" class="st3" points="129,198 131.8,202.5 130.1,204.9 127.9,206 135.1,215 143,226.8 143,220.3
		143.8,217.1 156.2,231.5 168.1,247.8 168.3,247.6 163,237.1 152.1,218.8 155,219.2 169.7,231.5 168.5,227.9 168.6,222.6
		171.2,222.9 199,235.7 199,235.5 174.6,216.3 165.7,208.3 162.6,214.8 160.4,212.8 148,198 142.2,198 140.7,199.4 138.3,198 	"/>
	<polygon id="XMLID_57_" class="st3" points="139.4,198 140.6,199.1 141,198 	"/>
	<polygon id="XMLID_56_" class="st3" points="149.7,198 156.8,207.4 162.7,213.7 163,212.2 164.2,208.4 165.3,207.6 166.8,208.7
		169.7,211.6 171.5,212 176.2,210.5 179,208.2 179.7,205.8 182,202.4 187.5,201.9 190.5,200.9 187.6,198 	"/>
	<polygon id="XMLID_55_" class="st3" points="75.7,198 76.7,201.1 77.8,201.9 81.4,202.8 82,203.5 82,205.3 81.9,207.5 82.7,208.7
		85.6,210.3 87.2,212.8 87.8,214.8 88,218.2 88,222.6 88.7,225.9 91.2,232.1 91.4,231.7 92.1,228.6 92.3,225.6 91.9,221.4
		92.7,218.2 92.4,215.4 91.7,211.8 91.4,210.9 93.4,209.6 96.1,206.6 98,205.9 103.2,206.5 106.4,206.7 107.5,210.6 108.8,212.2
		110.2,213.1 112.2,213.3 114.3,212.4 115.3,211.5 116,210.6 116.3,210 116.6,209.1 120.8,207.3 123.5,205.4 124.4,205.1
		127.2,204.9 130.2,203.1 130.8,202.2 130.6,201.3 128.8,198 	"/>
	<polygon id="XMLID_54_" class="st3" points="45,133.3 43,132.8 40.1,132.5 38.6,132.4 36.4,132.8 35.3,132.7 34.8,132.2
		34.7,131.9 34.6,131.6 34.6,131.3 34.6,131 34.6,130.2 34.8,129.4 34,128.1 34,127.1 34.5,126.2 35.2,126 36.9,126.2 40.5,124.2
		37.7,117.2 35,116.9 33.1,116.1 32.3,116.3 31.8,116.1 31,114.8 30.8,113.4 30.8,112.5 31.7,111.2 33.4,108.6 33.9,107.4
		33.5,105.8 30.7,103.8 30,102.4 29.7,100.4 29.7,95.5 29.4,94.3 29.1,93.3 29,92.9 28.9,92.5 28.8,92.3 28.9,92 29,91.7 29,91.5
		29,91.1 29,90.6 29.3,89.9 30.7,89 32.2,86.4 33.1,84.8 34.1,84 35.7,83.6 37.6,84 40.5,86.2 43,88.2 45,89.8 	"/>
	<polygon id="XMLID_53_" class="st3" points="57.5,198 64.2,201.1 65.5,201.5 67.9,201.7 70.9,201.2 72.5,200.5 75.7,198 75.7,198
		"/>
	<polygon id="XMLID_52_" class="st3" points="45,184.9 34.1,181.7 28.8,179.7 26,178.2 25.1,177.1 25.3,175.2 25.4,173.8
		24.8,170.6 24.9,169.1 25.6,167.6 27.3,166.2 30.7,164.3 31.8,163.5 32.3,163.1 32.7,162.4 33,161.9 33.2,161.6 33.4,162.1
		33.8,162.7 34.6,163.5 35,163.9 36.8,165.3 35.7,165.8 34,166.5 31.3,168.5 30.3,170.2 29.9,173.8 30.4,175.7 31.6,177.4
		32.8,177.9 35.5,178.3 36.8,179.1 38.6,180.8 39.7,181.2 41.9,181.3 45,180.5 	"/>
	<path id="XMLID_51_" class="st3" d="M45,171.9l-0.4-0.4l-1.3-1.4l-1.1-1.1l-4.3-3.6l-2.2-2.1l-1.9-1.9l0.5-3.2l4.9-3.8l1.2-2.7
		l-3-2.8l-3.1-0.1l-3-0.2l-2.8-1.1l-1.1-0.7l-0.9-1l-0.4-1.4l-1.1-5.5l-3.2-1.5l-4.1,0.4l-4.2,1.1l-2.4,0.1c0,0-1.3-0.5-1.3-0.5
		s-0.9-0.6-0.9-0.6l-0.8-0.8l-0.7-1.1L7,135.3l3.1,1.9l2.6,0.3l8.4-1.3l3.2,0.3l2.3,1.4l4.5,5.4l2,0.8l2.6,0.1l4.6-0.3l2.1,0.4
		l1.3,0.7l0.6,0.5l0.3,0.3l0.2,0.3l0.1,0.2v6c0,0-0.4,0.1-0.5,0.4l-2.1,2.5l-1.7,3.2l-0.2,2.3l0.6,2.2l1.5,2.1l1.5,1l0.9,0.2V171.9z
		"/>
	<polygon id="XMLID_50_" class="st3" points="45,177.8 41.2,179.2 39.6,178.8 37.1,177.5 33.9,177.3 32,176.5 30.8,174.3
		30.9,170.9 32.3,168.8 37.2,166.1 36.9,167.9 33.7,171.3 34.3,173.3 36.8,174.3 45,175.1 	"/>
	<path id="XMLID_49_" class="st3" d="M45,166l-1.2-0.7l-2.3-3.8l0.1-2l0.8-2.5l1.8-3.9c0,0,0.5-0.8,0.8-0.8V166z"/>
	<polygon id="XMLID_48_" class="st3" points="45,141.6 43.3,140.7 40,140 33.6,140.2 29.9,139.6 31.8,141.7 34.4,142.6 40.5,143.2
		42.3,143.8 43.4,144.5 44.1,145.2 44.4,145.6 44.5,145.7 44.8,146 45,146.4 	"/>
	<polygon id="XMLID_47_" class="st3" points="45,174.6 35.7,172.8 35.3,170.7 37.8,167.9 38.4,166.4 45,172 	"/>
	<polygon id="XMLID_44_" class="st3" points="45,140.7 43,139.3 38.4,138.3 29.6,137.7 24,135.2 12.8,135.8 7.8,134.5 5.4,131.8
		4.4,129.9 9.1,132 13.7,132.6 27.1,131.2 29.7,132.6 32,134.1 33.8,134.3 37.3,133.4 39.4,133 42.4,133 45,133.3 	"/>
	<polygon id="XMLID_31_" class="st3" points="189,170.8 191.6,167.2 199.1,160.2 202.8,155.6 204.9,151.9 206.2,148.1 206.8,144.1
		206.4,140.5 205.5,137.3 204,134.2 203,133.3 203.1,131.4 204,128.9 203.9,127.4 202.9,126.3 197.1,124.1 195.7,125.1 195,127.5
		195.8,131.6 193.3,134 193.4,136.6 189,140.1 	"/>
	<polygon id="XMLID_30_" class="st3" points="189,145.3 192.6,143.9 190.5,142.9 189.8,140.6 191.1,138.8 193,137.8 192.4,137
		190.9,137 189.8,137.5 189,137.8 	"/>
	<polygon id="XMLID_29_" class="st3" points="189,150.8 190.9,148.7 191.7,150.1 193.9,151.5 194.4,152.3 194.6,153.3 194.3,154.5
		190.9,159.6 195.8,156.2 199.1,152.1 199.6,148.9 201.8,148.9 200.8,152.8 198.3,157.3 195.3,160.7 189,166.3 	"/>
	<polygon id="XMLID_28_" class="st3" points="96.2,54 99.9,52 106.7,48.7 106.3,50.9 105.1,54 	"/>
	<polygon id="XMLID_27_" class="st3" points="45,89.6 35.5,81.8 31.8,77.3 29.9,72.9 29.6,68.9 30.5,64 33.4,58.1 39.3,52.9
		45.4,45.9 50.8,45.1 59.3,48.9 67.1,47.9 69.1,45.5 69.4,43.7 67.6,40.1 65.5,37.5 64.6,34.8 65.4,31 67.9,28.7 75.8,25.4
		74.4,29.3 75.5,34 77,34.6 80.1,35.8 81.4,37.3 81.6,38.7 81.1,41.4 78,45.4 76.4,47.9 76.3,49.5 76.8,50.6 78.1,51.3 80.6,51.7
		83.4,51.3 85.5,50.6 87.1,49 87.5,47.7 87.7,46.2 87.8,42.6 88.2,39.9 89.2,38.5 91.1,37.2 94.8,34.8 95,33.3 95.1,33 95.5,32
		95.7,31.6 95.9,31.4 96.2,31.2 96.6,30.8 97.3,30.6 98,30.5 99.1,30.6 100.7,30.7 101.8,30.6 102.8,30.3 102.2,32.2 103,38.6
		103,40.5 102.7,43.2 97.8,47.2 90.3,50.6 87.7,52.3 86.7,54 45,54 	"/>
	<path id="XMLID_26_" class="st3" d="M59.6,54c0,0-0.6-0.7-1.5-0.9L54,51.7l-2.6-0.1l-1.6,0.5l-3,1.2L46,54H59.6z"/>
	<polygon id="XMLID_25_" class="st3" points="68.5,54 68.5,52.6 68.7,52.1 69.1,51.7 69.8,51.4 72.4,52.1 75.9,54 	"/>
	<path id="XMLID_24_" class="st3" d="M69.5,37.3c0,0-2.1-0.5-1.9-2.4s2.5-1.4,2.5-1.4s1.8,0.6,1.2,2.3S69.5,37.3,69.5,37.3z"/>
	<path id="XMLID_23_" class="st3" d="M73.7,43.8l2.4-2.9c0,0,0.8-3.2-1.9-3.1c-2.8,0.1-2.1,3.5-2.1,3.5L73.7,43.8z"/>
	<path id="XMLID_22_" class="st3" d="M92.8,45.2c0,0,2.6-0.4,2-4.2c0,0-3.3-2.8-3,2.8C91.8,43.8,92,45.1,92.8,45.2z"/>
	<polyline id="XMLID_2_" class="st3" points="45,55 43.9,56.7 43.2,62 37.6,67.3 36.9,71.4 38.5,76.5 45,82.5 45,55 	"/>
</g>
<g id="Outline">
	<path id="XMLID_103_" d="M37.5,114.6C37.5,114.6,37.2,114.7,37.5,114.6L37.5,114.6z"/>
	<path id="XMLID_123_" d="M192.8,137.8c-3.8,0.8-4.6,5.2-0.4,6.1c-0.8,0.4-2.3,0.7-3.4,1.2v2c0.9-0.7,1.9-1.8,2.2-2.1
		c-0.7,1.1-0.9,2.4-0.6,3.6c-0.4-0.4-1-0.2-1.6,0.2v2c0.8-0.6,1.6-1.4,1.7-1.8c0.9,2.8,4.1,1.6,3.7,4.7c-0.2,1.3-4.1,6.3-4.1,6.2
		c0.6,0.8,4.6-2.4,5.1-2.8c1.9-1.8,4.9-5,4.4-7.8c0.6,0.1,1.3,0.1,1.9-0.2c-0.8,3.9-2.4,7.2-5.1,10.1c-0.6,0.6-5.1,4.4-7.5,6.9v0.9
		c2.6-1.9,7.9-6,8.7-6.5c3.1-2.1,5.3-5.4,6.6-8.8c1.1-3,1.9-7.4-0.2-10.1c-3.5-4.5-7.7,1.2-3.9,2.2c-2.4-0.6,1-6.1,3.4-1.2
		c1.8,3.7-4.3,6.2-5.1,4.2c0.8,2.1-3.9,4.1-5.4,2.9c-1.2-0.9-1.1-2.5-0.5-3.8c0.7-1.6,1.8-1.7,3.3-1.7c-1.2,0-4.7-1.1-5-2.7
		c-0.3-2.1,4.2-3.8,5.6-3.6c-1.2-0.2-2.1,0-2.7-0.8c-0.3-0.4-0.5-2.4-0.4-2.8c0.3-1.2,2.9-2.3,2.9-2.9c0,0.2-0.7-1.7-0.7-1.5
		c-0.2-0.9-0.5-2-0.4-3c0.3-2.2,1.8-3.4,3.8-1.9c-1.4,1.1-1.3,3.9,0.3,4.8c0.4,0.2,1.6,0.8,1.9,0.1c0.2-0.5-1.1-0.5-1.3-1
		c-0.7-1.9,0.6-3.8,2.7-2.5c3,1.9-1,4.2,0.2,5.7c-2.2-1.5-6.2-0.9-5.7,2.5c0.5,3.6,4.1,2.1,4.9-0.5c-0.3,0.8-3.9,1.3-3-0.8
		c0.4-1.1,2.9-0.3,3.6,0.1c1,0.6,1.7,1.8,2.2,2.9c2.2,4.8,2.3,9.5,0.3,14.4c-1.8,4.6-5.1,8.5-8.7,11.8c-2.6,2.3-5.9,4.8-7.5,8v3.4
		c0.2-0.5,0.4-1,0.8-1.7c2.1-4.4,6.2-7.1,9.6-10.4c4-3.8,6.7-8.4,7.6-13.9c0.8-5.3,1.2-11.7-3.6-15.4c0.2,0,0.4,0,0.7-0.1
		c0,0,0,0,0,0c0,0,0.1-0.1,0.1-0.1c0,0-0.1,0.1-0.1,0.1c1.8-1.3,1.2-4.5,0-6c-1.1-1.4-1.8-1.1-3.2-1.9c-0.7-0.4-1.4-1-2.2-1.4
		c-4.8-2.6-7.2,5.3-4.3,8.3c-1.9,0.6-2,1.6-2.6,3.2c0.1,0.5,0.1,0.9,0.2,1.4c-0.6,0.3-1.3,0.6-2,0.7c-0.3,0.1-0.5,0.2-0.8,0.2v1.1
		C190,138.2,191.9,136.7,192.8,137.8z M202.7,150c0.4-1.9-0.4-0.7,1.1-2.4c-1.4,5.1-2.5,9.5-6.9,12.8c2-2,4-4.4,5.1-7.1
		C202.5,152.1,202.4,151.2,202.7,150z M195.4,151.2c0.4-0.7,2.2-1.1,2.8-2c-0.1,0.8-0.2,1.2-0.2,1.2c-0.5,1.7-1.6,3.3-2.9,4.5
		C195.6,153.9,195,151.8,195.4,151.2z"/>
	<path id="XMLID_127_" d="M198.4,185.4c-1.7-1-4.3-4.7-6-6.3c-0.9-0.8-2.3-1.7-3-2.8c-0.2-0.3-0.3-0.6-0.4-0.8v2.9
		C192,180.9,195.1,183.4,198.4,185.4z"/>
	<path id="XMLID_135_" d="M206.3,217.5c-2.8-4.3-5.3-8.9-8.8-12.7c2.5,0.1,10.5-2.6,8.3-5.4c-1.3-1.7-4.6-2.9-6.5-3.9
		c-2.4-1.3-4.8-2.7-7.4-3.8c1.4-0.6,7.3-4.4,6.4-6.1c-0.6-1.1-7.4,3.1-8.1,3.9c-2.1,2.6,1.7,3.4,3.9,4.7c3.6,2.2,7.3,4.4,11.1,6.1
		c-2.5,0.4-6.4,2-8.2,3.9c-0.7,0.8-1.1-0.4-0.7,1.5c0.3,1.4,1.7,3,2.5,4.2c3.6,5.5,7.3,11,11,16.4c-3.4-3.6-7.1-6.8-10.7-10.2
		c-2.8-2.6-6.1-6.6-9.6-8.2c1-1.3,4.2-4.2,4-6.1c-0.1-1.3-1.1-0.3-1.2-0.5c-0.9-1.2-1.6-2.4-2.6-3.6c-0.1-0.1-0.3-0.4-0.6-0.7v0.9
		h-2c1.2,1.2,2.8,2.5,3.2,2.8c-1.5,0.7-3.1,1.2-4.8,1.1c1.3-4.9-3.3-0.2-4.4,0.6c-0.9,0.6-8.1,2.7-8.1,2.9c-0.2,1,5.9,0.9,6.4,0.8
		c-0.3,2.1-1.9,3.3-3.8,4.2c-1,0.4-2,0.7-3,1c-1.9,0.5-1.4,0.5-3.1-0.5c-1-0.5-3.5-3.9-4.2-3.8c-1.8,0.3-2.5,5.1-2.5,6.3
		c-1.3-1.3-2.5-2.8-3.7-4.2c0.7-0.2,4.9-3.2,3.5-3.7c-0.8-0.3-2.4,2.9-3.7,2.9c-1.5,0-4.3-4.6-5.4-5.9c-0.4-0.5-1.8-2.4-3.5-4.6
		h-2.1c4.2,5.6,8.6,11.1,13.4,16.2c-4.8-2.7-9.7-5.5-14.8-7.8c-1.2-0.5-5.4-3-6.6-2.3c-1.2,0.7-1.1,6.1-0.9,7.3
		c-1.8-3.1-3.7-6.1-5.8-8.9c-0.4-0.6-2.6-3.8-3.9-4.5h-0.6c-0.1,0.1-0.2,0.3-0.2,0.5c-0.2,1,2.6,2.6,2.4,3.6
		c-0.2,0.9-2.7,2.3-3.5,2.5c-1.6,0.4-3.5,0.1-5.1-0.5c-0.2-0.1,1.1,1.2,1.1,1.2c-1.4,1.2-3.1,2.1-4.8,2.8c-0.7,0.2-4.1,1.5-4.4,1.4
		c0.7,0.4,1.4,0.6,2.1,0.7c-0.9,2-3.6,3.3-5.7,2.8c-2.4-0.7-3.2-3.4-3.7-5.6c3.1,0.2,5.8-0.6,8.5-1.9c2.1-1,5.1-1.8,6.7-3.6
		c0.3-0.4,1.6-2,1-2.6c-1.1-1-2,0.9-2.7,1.5c-2.6,2.3-5,1.6-8.2,1.2c-0.3,0,1.9,2.1,2.6,2.3c-4,1.8-8.4,2.8-12.7,2
		c0.7-0.4,3-2.1,2.3-3.1c-0.7-1.1-3.5,0.9-4.2,1.1c-1.5,0.4-4.3-0.4-5.5,0.4c-1.2,0.8,0,1.5,1.3,1.9c-0.8,1-4,4.4-5.1,4.4
		c3.9,0.2,5.3-2.9,8-4c0.9-0.4,2.6-0.4,3.5-0.3c0.7,0.2,1.4,0.4,2.1,0.5c1.4-0.3,1.8,0.3,1.4,1.6c1.4,3,1.5,6.4,6,5.9
		c1-0.1,2.1-0.5,2.9-1.1c1-0.7,1.4-2.9,1.9-3.2c0.9-0.6,3.4-0.4,4.7-1c1.2-0.6,1.8-1.6,2.9-2.2c1-0.6,1.7-1.4,3-0.6
		c1.2,0.7,2.5,3.7,3.3,4.8c1.2,1.8,11.9,17.3,12.9,16.5c0.9-0.7,0.6-7.2,0.6-8.2c4.9,6.2,10.4,11.8,15.1,18.2
		c2.3,3.1,4.4,6.4,6.6,9.5c0.6,0.9,4.7,7.2,5.6,7c0.7-0.2-5.9-15.3-6.6-16.6c-2.9-5.7-6.4-11.2-10.3-16.3c3.9,3.1,7.9,6.2,12.1,8.8
		c0.9,0.5,3.4,2.6,4.2,2c0.8-0.7-0.8-7.2-0.9-8.1c5.9,3.1,11.9,5.9,18.1,8.4c2.9,1.1,5.7,2.2,8.7,3.1c2.1,0.7,6.6,1.3,8.2,2.5
		c-11.1-8.6-22.6-16.3-33.4-25.3c2.1,0.2,4.3-0.3,6-1.5c0.8-0.5,1.6-1.3,2.1-2.2c0.3-0.6,0.3-2.5,0.6-2.9c0.3-0.4,2.2-0.8,2.7-1.1
		c0.8-0.5,1.5-2,2.1-2.3c0.6-0.3,2.2,0.2,3,0c1.5-0.3,2.1-1.5,3.5-0.8c-1.9,1.8-4.3,4.9-2.9,7.1c2,3.2,6.3,5.8,9.2,8.2
		c3,2.6,5.8,5.3,8.8,7.9c1.9,1.6,6.6,4.2,7.4,6.4C212.2,226.4,209.2,221.9,206.3,217.5z M206.3,217.4c-0.1-0.2-0.2-0.3-0.3-0.4
		C206.1,217.2,206.2,217.3,206.3,217.4z M205.9,216.9c-0.1-0.1-0.2-0.2-0.2-0.3C205.8,216.6,205.8,216.8,205.9,216.9z M205.6,216.4
		C205.6,216.3,205.5,216.3,205.6,216.4C205.5,216.3,205.6,216.3,205.6,216.4z M207,218.6C207.1,218.8,207.1,218.8,207,218.6
		L207,218.6z M206.7,218.1c0.1,0.1,0.1,0.2,0.2,0.3C206.9,218.4,206.8,218.3,206.7,218.1z M168.2,247.6c-3.7-6.2-8.4-11.9-12.7-17.6
		c-2-2.7-4.1-5.3-6.4-7.8c-1.1-1.2-2.4-2.3-3.5-3.6c0.2,0.3-1.9-1.9-1.7-2.1c-1.4,0.2-0.9,9.1-0.8,10c-3.9-7.6-9.5-14.1-14.9-20.6
		c1.4-0.4,2.6-1.3,3.4-2.6c0.7,1,6.9,10.2,7.9,9.4c0.5-0.4,0.7-3.3,0.8-4c3.4,3.9,9.6,7.3,12.1,11.4
		C157.8,229.2,163.5,238.1,168.2,247.6z M198.7,235.6c0,0-14.2-6.7-21.4-9.9c-1.5-0.7-7.6-4.3-8.9-3.5c-1.7,1.1,0.3,7.6,1,9
		c-5-4.9-10.6-9.1-15.8-13.6c-2.3-2-4.6-4.1-7-6.2c-1.9-1.6-6.1-3.6-5.9-5.9c5.2,2.4,10.3,5,15.3,7.8c2,1.2,3.9,2.4,6,3.5
		c1.4,0.8,5.6,1.6,6.4,2.4c-1.2-1.2-4-2.7-4.5-4.5c-0.3-1.3,1.7-4.1,2-5.9C175.9,218.7,198.7,235.6,198.7,235.6z"/>
	<path id="XMLID_143_" d="M141.5,199.2c0.3-0.2,0.6-0.7,0.8-1.2h-1.3c-0.1,0.5-0.2,0.8-0.3,1c-0.1-0.1-0.5-0.5-1-1h-1.4
		c0.3,0.2,0.6,0.4,0.7,0.5C140.4,199.7,140.3,200.1,141.5,199.2z"/>
	<path id="XMLID_153_" d="M161.6,200.8c0.7,0.8,2,1,3,1c-1.6,0.7-3.2,1.4-5,1.2c-0.6-0.1-3.1-1.3-3.5-1c-1.3,1.2,4.4,2.8,5,2.8
		c0.8,0,6.9-1.7,4.6-3.1c1.9-0.3,4-1.6,4.6-3.5c0-0.1,0.1-0.2,0.1-0.3h-0.9c-0.9,0.5-2.1,1.7-2.1,1.6
		C166.6,200.2,162.2,201.5,161.6,200.8z"/>
	<path id="XMLID_162_" d="M65.2,202.7c3.1,0.5,7.7,0,9.9-2.6c1,2.9,3.4,1.9,5.2,2.6c2.9,1.2,0.5,2.4,0.5,4.2c0,2.7,4.6,3.8,5.7,5.7
		c2.1,3.5-0.4,7.2-0.4,10.8c0,1.9,2,9.5,4.3,9.9c1.5,0.3,2.4-3.2,2.8-4.6c0.5-1.9,0.2-3.4,0-5.2c0-0.7-0.2-1.3-0.8-1.6
		c0.5-0.6,0.8-1.2,1.1-1.9c1.1-2.8,0.6-6-1.4-8.2c-1.1-1.2,0.3,3.8,0.4,4.2c0.3,2.5-0.2,5.1-1.6,7.2c0.4,0.4,0.7,0.1,1-0.7
		c0.5,3.2,0.5,6.5-0.6,9.6c-1.4-3.6-2.9-6.6-2.9-10.6c0-3.2,0.6-6.9-1.6-9.6c1.6,0.4,2.2,0,1.1-0.9c-0.7-0.7-2.5-0.9-3.4-1.3
		c-0.9-0.5-1.9-0.9-2.3-1.9c-0.5-1.2,0.7-2.4,0.2-3.4c0.3,0.1,2.5,0.5,2.7-0.3c0.1-0.6-2.9-1-3.2-1.3c-0.3-0.3-1.8-2.8-1-3
		c-1.3,0.3-1.3,1.9-0.8,2.8c-1-0.6-2-0.2-3-1.2c-0.6-0.6-1-3-1.1-3.1c-1.1-0.9-2.3,1.6-3.9,2.4c-2.2,1-5,1.2-7.3,0.7
		c-0.7-0.1-4.6-2.2-6.6-3.3h-1.3C57.3,199.9,64.1,202.6,65.2,202.7z"/>
	<path id="XMLID_166_" d="M40,103C40,103,40,103,40,103c-0.1,0.1-0.3,0.2-0.5,0.4c-0.1,0.1-0.1,0.1,0,0c-1.4,1.1-4.8,3.9-4.2,5.1
		c0.6,1.1,3,0.7,3.6-0.5C42.9,113.2,41,102.3,40,103z M39.6,103.3c0.1-0.1,0.2-0.2,0.3-0.2c0,0,0.1,0,0.1-0.1c0,0-0.1,0-0.1,0.1
		C39.8,103.2,39.7,103.3,39.6,103.3z"/>
	<path id="XMLID_167_" d="M43,99.5c-0.9,1.7,0.7,3.2,2,4.3v-5.5C44.3,98.6,43.3,99.1,43,99.5z"/>
	<path id="XMLID_168_" d="M41.9,95.1c-1.2,2.8-5.1-0.2-6.3-1c-1-0.6-4.4-1.6-4.8-2c2,2,0.2,4.5,1.2,7.2c0.4,1,1.5,3.5,2.8,3.7
		c2.3,0.4,2.6-3,3.6-4.2c0.9-1.1,2.2-1,3.1-1.9C42.3,96.2,42,94.7,41.9,95.1z"/>
	<path id="XMLID_169_" d="M99.5,52.3c2.3-1.1,5.2-1.5,7.1-3.4c0,0.4-1.2,4.1-1.7,5.1h0.5c1-1,2.3-4.2,2.4-4.6c0-0.2,0.3-3.4,0.1-3.6
		c-0.9-0.8-1,0.4-1.8,1c-3.2,2.7-8.4,3-10.6,6.8c-0.1,0.1-0.1,0.2-0.1,0.3h1.2C97.7,53.4,99.4,52.3,99.5,52.3z"/>
	<path id="XMLID_170_" d="M68.8,46.7c0.4-1.6,1.4-2.8-0.1-5.3c-1.4-2.3-3.6-3.6-3.8-6.6c-0.4-6,6.2-7.2,10.4-9.1
		c-1.1,2.5-2.3,6.1,0.1,8.2c-0.2-0.2-0.4-0.3-0.4-0.1c2.8,1.5,7.2,1.6,6.3,6c-0.5,2.4-2.7,4.6-4.5,6.1c-1,0.9-3.7,3.8-0.5,1.8
		c-1.8,5.4,7.4,4.3,9.8,2.4c2.8-2.2,0.8-7,2.3-10.3c1.3-3.1,5.4-2.7,6.6-5.3c-0.2,0.4-0.2-0.8-0.1-1.5c-0.1,0.3-0.2,0.6-0.4,0.9
		c-1.2,2.5-4.5,2-6.2,4.2c-2.4,3.1,0.5,7.7-1.7,10.6c-1.4,1.8-5.7,2.9-7.9,2.1c-0.9-0.3-2.1-0.9-2.3-2c-0.2-1.6,1.4-2.1,2.4-3.1
		c1.9-1.9,4.3-5.5,3.3-8.4c-0.9-2.6-3.8-2.5-6.1-3.2c0.8-0.7,0.4-3.9,0.5-5c0.3-2.2,1-4.1,1.9-6.1c1.1-2.6,3.1-6.7,0.4-9
		c-2.4-2-1.1-0.3-0.9,0.5c0.4,1.6,0.6,2.4,0.2,3.8c-0.6,1.9-1.8,4.5-3.7,5.9c-3.8,2.8-10.4,3.4-10.7,9.4
		C63.6,38.8,70.1,41.4,68.8,46.7z"/>
	<path id="XMLID_171_" d="M96.9,30.8c1.8-0.7,3.8,0.6,5.7-0.4c-2.5,4.8,2.5,8.9-1.3,13.4c-1.7,2-4.8,2.9-7.2,3.9
		c-2.7,1.2-4.4,3.1-6.5,4.6c4.9-3.5,12.4-3.5,16-8.7c2.8-3.9-0.6-5.7-0.7-9.6c0-1.2,3-9,2.4-9.1c-0.3-0.1-1.5,3.2-1.8,3.6
		c-1.2,1.6-2.1,1.9-4.1,1.9c-2.6,0-3.3,0.2-3.8,1.3C95.9,31.3,96.3,31,96.9,30.8z"/>
	<path id="XMLID_172_" d="M95.1,32.6c0,0.1-0.1,0.3-0.1,0.5c0.3-0.6,0.5-1.1,0.7-1.4C95.5,32,95.3,32.3,95.1,32.6z"/>
	<path id="XMLID_175_" d="M75.4,37.8c-1.3-1-3-0.3-3.8,1c-1.2,1.9-0.2,4.1,1.2,5.6C73.9,45.5,78.4,40,75.4,37.8z M72.1,39.7
		c0-0.2,0.1-0.3,0.1-0.3C72.2,39.4,72.2,39.6,72.1,39.7c0.4-1.8,3.1-2.7,3.9-0.6c0.6,1.6-1.4,3.4-2.4,4.4
		C72.8,42.5,71.8,41.1,72.1,39.7C72.1,40,72,40.5,72.1,39.7z"/>
	<path id="XMLID_182_" d="M68.1,33.2c-1.3,0.8-1.3,2.4-0.4,3.5c0.1,0.1,2,1.2,2,1.2c0,0,0,0,0,0c0,0,0,0,0,0c0.1,0,0.1,0,0.2,0
		c-0.1,0-0.1,0-0.2,0C73.2,37.7,71.6,31.1,68.1,33.2z M67.7,34.7c0,0,0,0.1,0,0.1C67.7,34.8,67.7,34.8,67.7,34.7z M68,35.1
		C68,35.1,68,35.1,68,35.1C68,35.1,68,35.1,68,35.1z M67.7,34.9c0.2-2.2,4.3-1.6,3.5,0.9C70.5,38,67.5,37,67.7,34.9z"/>
	<path id="XMLID_191_" d="M94.9,40.2c-1.4-1.2-3.5,0.2-4.1,1.7c-0.5,1.2-0.1,2,0.3,3c0-0.1,1.1,1.8,1,1.8
		C94.6,46.7,97,41.8,94.9,40.2z M92.5,44.8c-1.8-1.8,0.6-5.6,2.1-3.7C95.5,42.2,93.7,46,92.5,44.8z"/>
	<path id="XMLID_192_" d="M39.5,77.1c-1.7-2.6-2.8-5.8-1.7-8.8c1.1-3,4.5-3.9,5.8-6.6c0.8-1.6,0-3.2,0.5-4.8
		c0.2-0.6,0.5-1.2,0.9-1.7V54h1c0.8-0.7,1.7-1.2,2.6-1.3c1.8-1.1,3.7-1.1,5.7-0.7c0.5,0.1,4.5,1.8,4.7,1.5c0.1-0.2-4.4-3.2-4.7-3.3
		c-2.6-0.8-3.1,1.1-5.3,1.9c-2.4,0.9-4.2-0.2-5.4,2.7c-0.9,2.1-0.1,4.5-1.3,6.6c-1.2,2.1-3.6,2.8-5,4.6c-1.6,2.1-1.5,4.9-1,7.3
		c0.5,2.2,1.6,4.2,3.1,5.8c0.3,0.3,4.7,4,5.6,3.7v-0.3C44.1,81.7,39.9,77.7,39.5,77.1z"/>
	<path id="XMLID_195_" d="M68.5,53.8C68.5,53.8,68.5,53.8,68.5,53.8C68.5,53.8,68.5,53.8,68.5,53.8C68.5,53.8,68.5,53.8,68.5,53.8
		c-0.5-4.2,4.3-1.3,7.3,0.2h1.7C75,52.1,67.8,47.5,68.5,53.8z"/>
	<path id="XMLID_200_" d="M41.6,160.6c-0.1-1.8,0.8-3.3,1.6-4.8c0.2-0.3,2-4,1.1-3.2c-2.3,2.1-4.6,5.2-4.1,8.5
		c0.3,2.2,2.2,4.9,4.7,5.1V166C43.4,165.2,41.7,161.8,41.6,160.6z"/>
	<path id="XMLID_205_" d="M43.5,114.7c0.1,0.3,0.2,0.5,0.3,0.8C43.8,115.2,43.7,114.9,43.5,114.7z"/>
	<path id="XMLID_210_" d="M25.2,176.9c-0.1-0.9,0.4-2.3,0.2-3.4c-0.3-1.8-1-3.3-0.1-5.1c1.7-3.2,6.5-3.3,7.8-6.7
		c0.8,1.5,2.2,2.6,3.6,3.6c-2.7,0.9-5.5,2-6.6,4.8c-0.7,2-0.7,5.6,1.1,7.1c1.1,0.9,2.6,0.7,3.8,1c1.8,0.5,2.1,1.7,3.5,2.6
		c1.1,0.8,4.5,0.7,6.4-0.3v-3c-1.3,0.2-3.1,1.3-3.8,1.3c-1.5,0-2.3-1-3.6-1.5c-1.2-0.4-2.1-0.2-3.3-0.3c-2.8-0.3-3.6-2.5-3.3-5.2
		c0.5-3.7,3.6-3.6,6-5.5c0.2,2.5-5.8,4.1-2.6,7.3c0.9,0.9,8.5,2.1,10.6,1.6v-0.7c-1.9-0.6-8.6-1.3-9.1-2.3c-1.3-2.3,2.6-3.7,2.5-5.7
		c2.2,1.8,4.3,3.8,6.6,5.4v-0.2c-1-1-1.9-2.2-2.9-3c-1.8-1.6-3.8-3-5.5-4.6c-3.6-3.5-2.6-6.4,1.4-8.7c2.7-1.6,4.7-4.7,0.5-6.4
		c-2.5-1-5.1,0.1-7.7-0.8c-2.4-0.9-4.2-1.5-4.5-3.9c-0.3-3,0.5-5.7-3.2-6.8c-5.9-1.8-12.4,5.8-16-2.2c6.1,6,14.7-2.9,19.9,3.2
		c2.8,3.2,3.3,5.9,8.3,5.8c3.2-0.1,7.7-1.3,9.8,2v0c-1.6-2.7-4.2-3.6-7.3-3.9c-2.7-0.2-5.7,0.2-7.3-2.6c3.1,0.8,6.3,0.2,9.4,0.4
		c1.3,0.1,3.6,0.6,5.2,1.5v-1.1c-1-0.9-2.3-1.6-3.6-1.9c0.1,0,0.3,0.1,0.4,0.1c-0.1,0-0.3-0.1-0.4-0.1c0,0,0,0,0,0c0,0,0,0,0,0
		c-3.6-0.9-7.2-0.4-10.8-1.5c-3.6-1.1-6-2.9-10-2.3c-6.1,0.9-12.2,1.7-15.7-4.5c6.8,4.2,12.8,1.5,20,1.2c1.2,0,2.4-0.1,3.5,0.4
		c1.6,0.7,2.4,2.2,4.3,2.4c2,0.2,4.1-0.9,6.1-1.2c2.1-0.3,4.2-0.1,6.4,0.1v-0.1c-2-0.3-4.2-1-6.3-0.9c-2,0.1-4.6,1.3-4-2.1
		c1.2,1.6,2-0.1,2.6-1.5c0.7,2.8,3.1,2.4,3.6-0.4c0.4,1,1.2,1.6,1.7,2.3c-0.6-0.8-1.9-2.7-1.2-3.8c0.4-0.6,2.1-1.4,2.7-0.9
		c1.4,1.1-1.5,3.4-1.5,4.4c0,0.3,1.9-2.1,2.5-3v-11.3c0,0,0-0.1-0.1-0.1c-0.3,0-0.6,0.1-0.7,0.3c-0.2-0.2-0.3-0.6-0.4-1
		c0,1-1,2.4-1.7,2.7c-1-1.6-2.5-3.6,0.4-3.7c0.5,0,0.8,0.1,1,0.3c-0.5-1.4-1.3-2.8-3.1-1c-0.8-1.9-2.3-0.9-2.9,0.6
		c0.1-1.9-2-1.1-2.8-1.2c-0.7-0.2-2.9-1-3.7-0.8c0.8-1.8,3.6-3.8,2.7-6c-0.6-1.4-2.4-1.6-3.2-2.9c-1.4-2.3-0.3-6.1-1-8.7
		c-0.3-1-1-2.3-0.7-3.4c0.4-2,0.8-1,2.2-2.4c1.6-1.6,1.2-4.5,4.1-5c2.4-0.4,5.7,3.4,7.6,4.8c1.1,0.8,1.9,1.3,2.2,1.3v-0.4
		c-0.2-0.3-0.6-0.7-1.3-1.3c-2.1-1.8-4.3-3.4-6.4-5.2c-4.3-3.8-7.8-8-7.4-14c0.4-6.2,3.2-10.6,7.9-14.4c4.5-3.6,6.8-10.7,13.8-8.7
		c2.9,0.9,5.3,2.7,8.3,3.4c0.8,0.2,9.1,0,7.5-2.4c0.3,0.4-5.8,1.3-6.6,1.1c-2.5-0.5-4.7-1.9-7-2.9c-2.3-0.9-4.7-1.7-7.1-0.9
		c-3.3,1.1-4.6,4.5-6.9,6.8c-2.2,2.2-5.2,3.6-7.2,6.1c-1.9,2.3-3.1,5.3-3.7,8.2c-1.6,7.3,1,12.8,6.5,17.6c-2.1,0.3-3.2,1.8-4.1,3.4
		c-0.6,1.1-1.7,2.2-2.3,3.3c-1.2,2.3,0.8,5.7,0.4,8.3c-0.5,3.1-1.8,5.3,0.9,7.3c1.1,0.9,1.6,0.4,1.6,2.1c0,1.3-1,2.6-1.3,3.8
		c-0.5,2.4-0.3,4.9,2,5.7c1.4,0.5,2.8-0.1,3.9,1c1.1,1.1,1.4,4.3,1,5.8c-0.4,1.3-1.2,1.4-1.9,1.8c-1.1,0.7-1.9,0.5-1.9,2.3
		c0,0.8,0.4,2,0.6,2.7c0.3,1.1-0.2,1.7,0.9,2.7c-1.3,0.4-2.9,0.4-4.2-0.3c-1-0.6-1-1.5-1.9-2.1c-2.3-1.4-5.1-0.4-7.5,0.1
		c-3.5,0.7-6.8,1.2-10.3,0.6c-1-0.2-7.8-2.4-7.9-2.2c-0.9,1.5,5.7,10.1,7,10.8c3.9,2.1,6.2-1,9.9-0.7c4.8,0.3,3.8,7.5,6.2,10.2
		c2.3,2.5,5.5,1.7,8.4,1.1c1.9-0.4,5.6-0.4,4.5,2.9c-0.5,1.7-4,2.4-5.3,4.1c-1.5,1.8-0.6,3.5-2.1,5.1c-3.7,4.1-10.7,0.7-9.1,8.7
		c0.9,4.5-1.6,7.4,4,9.6c1.6,0.6,14.2,4.5,18.2,4.6v-0.8C40.6,183.4,25.7,179.8,25.2,176.9z M39.4,130.3c0,0.1-0.2,0.2-0.5,0.3
		c-0.9-1-2.4-5.6,0.4-4.3C40.8,126.9,40.6,129.4,39.4,130.3z M39.1,113.7c0.9-0.1,1.3,1.1,1.3,2c0,0,0,0,0,0
		c-0.5-0.1-0.4,2.7-1.9,1.6C37.3,116.5,37.4,113.9,39.1,113.7z M31.5,115.5c-0.5-0.8-0.7-1.8-0.6-2.7
		C34.2,110.8,33.4,118.6,31.5,115.5z M34.4,116.4C34.4,116.4,35.3,117,34.4,116.4c0-0.4-0.5-0.7-0.9-0.6c0.8-1-0.2-3.6,2.4-2.4
		C38,114.5,36.8,118.1,34.4,116.4z M37.5,114.6C37.2,114.7,37.5,114.6,37.5,114.6L37.5,114.6z M34.6,126.8c-0.1-1.2,1.8-0.5,2.3-0.5
		c-0.3,1.5-0.4,2.9-1.2,4.2C35.2,129.4,34.2,128,34.6,126.8z"/>
	<path id="XMLID_219_" d="M154.3,45c3.8-1.8,7.9-4.4,6.2-9.5c0.9,2.1,0.9,4.4-0.2,6.4c-1.4,2.7-3,4.6-2,7.9c0.1,0.4,1.4,2.4,2.6,4.2
		h0.9c-1.2-1.9-2.6-4.2-2.7-4.7c-0.7-3.1,0.7-4.7,2.3-7.1c1.5-2.5,1.2-5.1-0.3-7.5c-0.2-0.3-2.2-3.3-2.6-2.8
		c-0.6,0.6,0.4,1.3,0.5,1.7c1.2,5.5-1.1,8.5-6.2,10.7c-5.2,2.3-1.2,5.7-0.9,9.8h0.1C152.2,50.5,150.5,46.9,154.3,45z M160.4,41.9
		C160.4,41.9,160.4,41.9,160.4,41.9L160.4,41.9z M160.4,41.8c0,0,0.1-0.1,0.1-0.2C160.5,41.7,160.5,41.7,160.4,41.8z M160.6,41.4
		c0-0.1,0.1-0.1,0.1-0.1C160.7,41.3,160.7,41.4,160.6,41.4z"/>
	<path id="XMLID_224_" d="M177.9,48.2c1.6-4.2-0.7-9-3.1-12.6c-1.6-2.5-3.3-2.8-5.5-4.5c-2.2-1.7-2.3-2.6-1.6-4.8
		c0.9-2.4,0.3-4.9-2.3-5.8c-2.6-0.9-4.8,1.2-7.3,1.1c-5.6-0.3-6.3-9.5-7.7-13.6c2.6,5.9,7.5,8.9,13.9,7.7c4.9-0.9,11.5-1.8,12.8,4.7
		c0.5,2.4-0.3,5.1,1,7.4c1.5,2.5,2.2,2,1,5c-2.4,5.7,6.4,2.8,9.3,5.1c3,2.3,5.8,8.3,2.3,11.3c-1.5,1.3-5.7,1.4-2.1,2.5
		c2.8,0.9,6.3-0.1,8.6,2.3c3.4,3.5,0.9,10.4-1.9,13.5c-0.8,0.9-4.2,3-6.4,4.9v3.6c0.2,0,0.3,0,0.5,0c6.4,0.4,10.7-6,11-11.7
		c0.1-2.8-0.3-6.2-1-8.9c-1.1-4-4.2-4.9-8-4.9c5.2-3.7-1.1-13.7-5.8-14.7c-1.6-0.3-3.6,0-4.6-1.6c-0.8-1.3,0-1.1-0.1-2.4
		c-0.2-3-2.1-5.2-2.3-8.5c-0.2-3.5-0.3-7.2-3.4-9.5c-3.3-2.5-7.1-0.6-10.7,0.3c-6.3,1.5-12.4-1.4-14.6-7.6
		c1.7,4.8,0.7,10.6,4.6,14.6c3.1,3.2,7-1.2,9,2.9c1,2,0.1,2.7,0.2,4.6c0,3,2.6,4.1,5,5c4,1.5,8.8,5.3,9.3,10
		c0.3,3.4-3.2,6.6-5.2,8.9c-0.4,0.5-0.9,1-1.5,1.5h4C176.3,52.1,177.2,50.1,177.9,48.2z"/>
	<path id="XMLID_228_" d="M181,42.1c-1,1.2,0.4,6.1-1.3,6.5c0.9-0.2,1.5-1,1.8-1.8C181.8,46.1,183.1,39.5,181,42.1z"/>
	<path id="XMLID_229_" d="M205.5,71.6c-1.1,3.7-2.6,6.8-5.1,9.8c-2.1,2.4-4.4,5.1-2.9,8.5c2.3,5.1,11.9,6.3,9.3,13.8
		c-2.1,6.1-12.1,8.1-17.4,9.7c-0.1,0-0.2,0.1-0.4,0.1v3.4c1.3-0.3,2.6-0.7,3.4-0.9c7.8-1.9,22-9.8,14.5-19.7
		c-3.1-4.1-9.6-4.7-7.2-11.4c1-2.7,3.6-4.7,4.8-7.2c1.5-3,1.3-6,1.8-9c-0.7,4-5.9,8.2-9.5,10c-2.2,1.1-4.5,1.9-6.9,2.5
		c-0.3,0.1-0.7,0.2-1,0.2v1.2C195.7,81.2,202.8,78.2,205.5,71.6z"/>
	<path id="XMLID_232_" d="M195.7,93.2c0.2-0.3-2.5,1.5-2.8,1.8c-1.3,1.1-2.6,2.3-3.9,3.4v2.1C191.5,98.4,193.9,96,195.7,93.2z"/>
	<path id="XMLID_239_" d="M194.6,105.6c0.5-0.9,4.2-8.2,3-8.8c0.1,0.1-5.4,8.5-5.9,9.2c-0.8,1.1-1.8,2.2-2.7,3.2v2.6
		C191.2,110.1,193.1,108,194.6,105.6z"/>
</g>
</svg>
